<svg xmlns="http://www.w3.org/2000/svg" width="192" height="46" viewBox="0 0 192 46">
<!-- SVG created with Arrow, by QuiverAI (https://quiver.ai) -->
  <path d="m9.67 44.8c-6.32 0-8.03-4.81-8.03-12.71v-18.34c0-7.74 2.17-12.5 8.38-12.5h-0.12c7.19 0 7.98 5.67 7.98 11.94v4.53h-4.93v-4.09c0-4.15-0.17-8.07-3.16-8.07-2.82 0-3.44 3.22-3.44 7.92v17.76c0 6.09 0.73 8.75 3.44 8.75 2.93 0 3.16-3.57 3.16-8.38v-4.31h4.99v4.31c0 7.13-1.72 13.19-8.27 13.19z" fill="#282828"/>
  <path d="m22.46 1.6h5.55v18.23h7.54v-18.23h4.93v42.57h-4.93v-20.71h-7.54v20.71h-5.55v-42.57z" fill="#282828"/>
  <path d="m45.91 1.6h9.58c5.67 0 7.56 2.72 7.56 10.56v0.46c0 6.33-0.96 8.76-3.02 10.02v0.18c2.41 1.09 3.08 3.2 3.08 11.1 0 4.81 0.11 8.33 0.84 10.25h-5.16c-0.61-1.92-0.61-6.23-0.61-10.76 0-6.18-0.73-8.66-2.84-8.66h-4.5v19.42h-4.93v-42.57zm8.98 18.92c2.41 0 2.88-2.17 2.88-7.56v-0.4c0-5.45-0.73-6.55-3-6.55h-4.16v14.51h4.28z" fill="#282828"/>
  <path d="m67.27 31.73v-18.48c0-8.02 2.59-12.11 8.96-12.11h0.18c6.21 0 8.38 4.21 8.38 11.94v18.99c0 7.84-2.34 12.65-8.83 12.65-6.21 0-8.69-4.1-8.69-12.99zm12.47 0.74v-18.87c0-5.16-0.96-8.05-3.61-8.05-2.82 0-3.78 2.6-3.78 8.22v18.01c0 5.73 0.9 8.21 3.61 8.21 2.88 0 3.78-2.54 3.78-7.52z" fill="#282828"/>
  <path d="m89.18 1.6h6.67l4.56 32.15 4.87-32.15h6.49v42.57h-4.44v-32.36l-4.87 32.36h-4.22l-4.5-32.13v32.13h-4.56v-42.57z" fill="#282828"/>
  <path d="m120.6 1.6h6.04l6.85 42.57h-4.93l-1.21-8.77h-7.19l-1.15 8.77h-4.81l6.4-42.57zm6.04 29.38-2.94-20.81-2.99 20.81h5.93z" fill="#282828"/>
  <path d="m137.6 6.01h-5.28v-4.41h15.31v4.41h-5.28v38.16h-4.75v-38.16z" fill="#282828"/>
  <path d="m150.4 1.6h5.16v42.57h-5.16v-42.57z" fill="#282828"/>
  <path d="m169.3 44.8c-6.32 0-8.03-4.81-8.03-12.71v-18.34c0-7.74 2.17-12.5 8.38-12.5h-0.12c7.19 0 7.98 5.67 7.98 11.94v4.53h-4.93v-4.09c0-4.15-0.17-8.07-3.16-8.07-2.82 0-3.44 3.22-3.44 7.92v17.76c0 6.09 0.73 8.75 3.44 8.75 2.93 0 3.16-3.57 3.16-8.38v-4.31h4.99v4.31c0 7.13-1.72 13.19-8.27 13.19z" fill="#282828"/>
  <path d="m185.8 35.08c-3.2 0-4.64 2.78-4.64 4.83 0 2.84 2.05 4.83 4.7 4.83 3.26 0 4.92-2.48 4.92-4.89 0-2.6-1.95-4.77-4.98-4.77z" fill="#AE3E43"/>
</svg>