<svg width="42" height="42" viewBox="0 0 42 42" fill="none" xmlns="http://www.w3.org/2000/svg">
<path d="M3.5 10.5C3.5 7.20017 3.5 5.55025 4.52513 4.52513C5.55025 3.5 7.20017 3.5 10.5 3.5C13.7998 3.5 15.4498 3.5 16.4749 4.52513C17.5 5.55025 17.5 7.20017 17.5 10.5V31.5C17.5 34.7998 17.5 36.4497 16.4749 37.4748C15.4498 38.5 13.7998 38.5 10.5 38.5C7.20017 38.5 5.55025 38.5 4.52513 37.4748C3.5 36.4497 3.5 34.7998 3.5 31.5V10.5Z" fill="white"/>
<path opacity="0.5" d="M24.5 10.5C24.5 7.20017 24.5 5.55025 25.5252 4.52513C26.5503 3.5 28.2002 3.5 31.5 3.5C34.7998 3.5 36.4497 3.5 37.4748 4.52513C38.5 5.55025 38.5 7.20017 38.5 10.5V31.5C38.5 34.7998 38.5 36.4497 37.4748 37.4748C36.4497 38.5 34.7998 38.5 31.5 38.5C28.2002 38.5 26.5503 38.5 25.5252 37.4748C24.5 36.4497 24.5 34.7998 24.5 31.5V10.5Z" fill="white"/>
</svg>
