<svg width="32" height="29" viewBox="0 0 32 29" fill="none" xmlns="http://www.w3.org/2000/svg">
<path d="M4 14.1318H2.125C2.12525 11.5875 3.02203 9.10649 4.69092 7.03279C6.35981 4.95909 8.71807 3.39557 11.4385 2.55915C14.1589 1.72273 17.1067 1.65487 19.8727 2.365C22.6388 3.07513 25.0861 4.52804 26.875 6.52214V4.69219H28.75V10.4884H22.1875V8.83235H26.3919C25.3377 7.22197 23.8227 5.88468 21.9987 4.95456C20.1748 4.02444 18.1061 3.53419 16 3.53295C9.38312 3.53295 4 8.2875 4 14.1318ZM28 14.1318C28 19.976 22.6169 24.7306 16 24.7306C13.8939 24.7293 11.8252 24.2391 10.0013 23.3089C8.17734 22.3788 6.66233 21.0415 5.60813 19.4312H9.8125V17.7751H3.25V23.5713H5.125V21.7414C6.91392 23.7355 9.36118 25.1884 12.1273 25.8985C14.8933 26.6086 17.8411 26.5408 20.5615 25.7043C23.2819 24.8679 25.6402 23.3044 27.3091 21.2307C28.978 19.157 29.8747 16.676 29.875 14.1318H28Z" fill="white"/>
</svg>
