<svg width="48" height="49" viewBox="0 0 48 49" fill="none" xmlns="http://www.w3.org/2000/svg">
<path d="M28.7276 0C29.0981 1.16754e-05 29.459 0.117613 29.7584 0.335869C30.0578 0.554124 30.2802 0.86177 30.3936 1.2145L32.3186 7.196C33.1271 7.5915 33.9006 8.036 34.6391 8.5365L40.7851 7.2135C41.1475 7.13613 41.5251 7.17578 41.8634 7.32674C42.2018 7.4777 42.4836 7.73217 42.6681 8.0535L47.5191 16.45C47.7043 16.7711 47.7828 17.1428 47.7432 17.5114C47.7035 17.8801 47.5479 18.2266 47.2986 18.501L43.0811 23.156C43.1425 24.0486 43.1425 24.9444 43.0811 25.837L47.2986 30.499C47.5479 30.7734 47.7035 31.1199 47.7432 31.4886C47.7828 31.8572 47.7043 32.2289 47.5191 32.55L42.6681 40.95C42.4831 41.2707 42.2011 41.5244 41.8628 41.6747C41.5244 41.8251 41.1471 41.8642 40.7851 41.7865L34.6391 40.4635C33.9041 40.9605 33.1271 41.4085 32.3221 41.804L30.3936 47.7855C30.2802 48.1382 30.0578 48.4459 29.7584 48.6641C29.459 48.8824 29.0981 49 28.7276 49H19.0256C18.6551 49 18.2942 48.8824 17.9948 48.6641C17.6954 48.4459 17.473 48.1382 17.3596 47.7855L15.4381 41.8075C14.6318 41.4132 13.854 40.9629 13.1106 40.46L6.9681 41.7865C6.60573 41.8639 6.22815 41.8242 5.88975 41.6733C5.55136 41.5223 5.26961 41.2678 5.0851 40.9465L0.2341 32.55C0.0488605 32.2289 -0.0296011 31.8572 0.0100284 31.4886C0.0496578 31.1199 0.20533 30.7734 0.4546 30.499L4.6721 25.837C4.61101 24.9467 4.61101 24.0533 4.6721 23.163L0.4546 18.501C0.20533 18.2266 0.0496578 17.8801 0.0100284 17.5114C-0.0296011 17.1428 0.0488605 16.7711 0.2341 16.45L5.0851 8.05C5.27012 7.72931 5.55209 7.47556 5.89044 7.32525C6.2288 7.17494 6.6061 7.13582 6.9681 7.2135L13.1106 8.54C13.8526 8.0395 14.6296 7.588 15.4381 7.1925L17.3631 1.2145C17.4761 0.862906 17.6974 0.556075 17.9954 0.337925C18.2934 0.119775 18.6528 0.00148984 19.0221 0H28.7241H28.7276ZM27.4466 3.5H20.3066L18.3186 9.6845L16.9781 10.339C16.3191 10.6615 15.683 11.0287 15.0741 11.438L13.8351 12.278L7.4791 10.906L3.9091 17.094L8.2666 21.917L8.1616 23.401C8.11131 24.1328 8.11131 24.8672 8.1616 25.599L8.2666 27.083L3.9021 31.906L7.4756 38.094L13.8316 36.7255L15.0706 37.562C15.6795 37.9713 16.3156 38.3385 16.9746 38.661L18.3151 39.3155L20.3066 45.5H27.4536L29.4486 39.312L30.7856 38.661C31.4439 38.3393 32.0789 37.972 32.6861 37.562L33.9216 36.7255L40.2811 38.094L43.8511 31.906L39.4901 27.083L39.5951 25.599C39.6456 24.866 39.6456 24.1305 39.5951 23.3975L39.4901 21.9135L43.8546 17.094L40.2811 10.906L33.9216 12.271L32.6861 11.438C32.079 11.0279 31.4439 10.6606 30.7856 10.339L29.4486 9.688L27.4501 3.5H27.4466ZM23.8766 14C26.6614 14 29.3321 15.1062 31.3012 17.0754C33.2704 19.0445 34.3766 21.7152 34.3766 24.5C34.3766 27.2848 33.2704 29.9555 31.3012 31.9246C29.3321 33.8938 26.6614 35 23.8766 35C21.0918 35 18.4211 33.8938 16.452 31.9246C14.4828 29.9555 13.3766 27.2848 13.3766 24.5C13.3766 21.7152 14.4828 19.0445 16.452 17.0754C18.4211 15.1062 21.0918 14 23.8766 14ZM23.8766 17.5C22.0201 17.5 20.2396 18.2375 18.9269 19.5503C17.6141 20.863 16.8766 22.6435 16.8766 24.5C16.8766 26.3565 17.6141 28.137 18.9269 29.4497C20.2396 30.7625 22.0201 31.5 23.8766 31.5C25.7331 31.5 27.5136 30.7625 28.8263 29.4497C30.1391 28.137 30.8766 26.3565 30.8766 24.5C30.8766 22.6435 30.1391 20.863 28.8263 19.5503C27.5136 18.2375 25.7331 17.5 23.8766 17.5Z" fill="#292929"/>
</svg>
